<svg width="22" height="25" viewBox="0 0 22 25" fill="none" xmlns="http://www.w3.org/2000/svg">
<path d="M21.2891 7.8125H0.585938C0.263672 7.8125 0 7.54883 0 7.22656V5.46875C0 4.1748 1.0498 3.125 2.34375 3.125H4.6875V0.585938C4.6875 0.263672 4.95117 0 5.27344 0H7.22656C7.54883 0 7.8125 0.263672 7.8125 0.585938V3.125H14.0625V0.585938C14.0625 0.263672 14.3262 0 14.6484 0H16.6016C16.9238 0 17.1875 0.263672 17.1875 0.585938V3.125H19.5312C20.8252 3.125 21.875 4.1748 21.875 5.46875V7.22656C21.875 7.54883 21.6113 7.8125 21.2891 7.8125ZM0.585938 9.375H21.2891C21.6113 9.375 21.875 9.63867 21.875 9.96094V22.6562C21.875 23.9502 20.8252 25 19.5312 25H2.34375C1.0498 25 0 23.9502 0 22.6562V9.96094C0 9.63867 0.263672 9.375 0.585938 9.375ZM16.0156 16.2109C16.0156 15.8887 15.752 15.625 15.4297 15.625H12.5V12.6953C12.5 12.373 12.2363 12.1094 11.9141 12.1094H9.96094C9.63867 12.1094 9.375 12.373 9.375 12.6953V15.625H6.44531C6.12305 15.625 5.85938 15.8887 5.85938 16.2109V18.1641C5.85938 18.4863 6.12305 18.75 6.44531 18.75H9.375V21.6797C9.375 22.002 9.63867 22.2656 9.96094 22.2656H11.9141C12.2363 22.2656 12.5 22.002 12.5 21.6797V18.75H15.4297C15.752 18.75 16.0156 18.4863 16.0156 18.1641V16.2109Z" fill="#C3C3C3"/>
</svg>
