<svg width="15" height="10" viewBox="0 0 15 10" fill="none" xmlns="http://www.w3.org/2000/svg">
<path d="M7.50941 5.53108L2.3915 9.77976C2.03776 10.0734 1.46576 10.0734 1.11578 9.77976L0.265304 9.07373C-0.0884345 8.78007 -0.0884345 8.30522 0.265304 8.01468L3.893 5.00312L0.265304 1.99156C-0.0884345 1.69791 -0.0884345 1.22306 0.265304 0.932521L1.11202 0.220244C1.46576 -0.0734145 2.03776 -0.0734145 2.38773 0.220244L7.50564 4.46892C7.86315 4.76257 7.86315 5.23743 7.50941 5.53108ZM14.7347 4.46892L9.61678 0.220244C9.26305 -0.0734145 8.69104 -0.0734145 8.34107 0.220244L7.49059 0.926273C7.13685 1.21993 7.13685 1.69478 7.49059 1.98532L11.1183 4.99688L7.49059 8.00843C7.13685 8.30209 7.13685 8.77694 7.49059 9.06748L8.34107 9.77351C8.69481 10.0672 9.26681 10.0672 9.61678 9.77351L14.7347 5.52484C15.0884 5.23743 15.0884 4.76257 14.7347 4.46892Z" fill="#242423"/>
</svg>
