<svg width="16" height="16" viewBox="0 0 16 16" fill="none" xmlns="http://www.w3.org/2000/svg">
<path fill-rule="evenodd" clip-rule="evenodd" d="M11.7943 14.8789C13.0806 15.297 14.4621 14.5931 14.8795 13.3072C15.2973 12.0211 14.5934 10.6399 13.3076 10.2219C12.0216 9.804 10.6404 10.5079 10.2224 11.7939C9.80472 13.0799 10.5084 14.4613 11.7943 14.8789ZM1.12078 13.3071C1.53842 14.593 2.91943 15.2969 4.20599 14.879C5.49186 14.4614 6.19555 13.0797 5.77748 11.7938C5.35984 10.5077 3.97836 9.80389 2.6927 10.2219C1.4062 10.6398 0.702294 12.021 1.12078 13.3071ZM5.42951 2.00971C4.63445 0.915765 3.10334 0.673279 2.0096 1.46834C0.91544 2.26303 0.672953 3.79409 1.4678 4.88804C2.26249 5.98199 3.79355 6.22453 4.8875 5.42984C5.9815 4.63499 6.2242 3.10366 5.42951 2.00971ZM10.5695 2.00961C9.775 3.10356 10.0175 4.63489 11.1115 5.42973C12.2054 6.22463 13.7363 5.98188 14.5312 4.88814C15.3262 3.79419 15.0835 2.26292 13.9896 1.46802C12.8956 0.673173 11.3645 0.91566 10.5695 2.00961Z" fill="#F2F2F2"/>
<path d="M11.7943 14.8789L11.9487 14.4034L11.9488 14.4034L11.7943 14.8789ZM14.8795 13.3072L14.4039 13.1528L14.404 13.1527L14.8795 13.3072ZM13.3076 10.2219L13.4621 9.74633L13.4621 9.74635L13.3076 10.2219ZM10.2224 11.7939L9.74681 11.6395L9.74685 11.6394L10.2224 11.7939ZM1.12078 13.3071L1.59624 13.1524L1.59633 13.1527L1.12078 13.3071ZM4.20599 14.879L4.36044 15.3546L4.36044 15.3546L4.20599 14.879ZM5.77748 11.7938L5.30198 11.9484L5.30193 11.9483L5.77748 11.7938ZM2.6927 10.2219L2.8473 10.6974L2.84716 10.6975L2.6927 10.2219ZM5.42951 2.00971L5.83398 1.71576L5.83404 1.71585L5.42951 2.00971ZM2.0096 1.46834L2.30359 1.87277L2.30343 1.87289L2.0096 1.46834ZM1.4678 4.88804L1.8723 4.59413L1.87233 4.59417L1.4678 4.88804ZM4.8875 5.42984L5.18139 5.83434L5.18136 5.83437L4.8875 5.42984ZM10.5695 2.00961L10.1649 1.71579L10.165 1.71565L10.5695 2.00961ZM11.1115 5.42973L11.4054 5.02523L11.4054 5.02524L11.1115 5.42973ZM14.5312 4.88814L14.1267 4.59419L14.1267 4.59419L14.5312 4.88814ZM13.9896 1.46802L14.2835 1.06352L14.2835 1.06353L13.9896 1.46802ZM11.9488 14.4034C12.9726 14.7361 14.0718 14.1759 14.4039 13.1528L15.3551 13.4616C14.8523 15.0103 13.1886 15.8578 11.6397 15.3544L11.9488 14.4034ZM14.404 13.1527C14.7365 12.1293 14.1763 11.03 13.153 10.6974L13.4621 9.74635C15.0105 10.2497 15.8582 11.913 15.355 13.4617L14.404 13.1527ZM13.153 10.6974C12.1298 10.3649 11.0306 10.9249 10.6979 11.9485L9.74685 11.6394C10.2502 10.0908 11.9135 9.24312 13.4621 9.74633L13.153 10.6974ZM10.6979 11.9484C10.3655 12.9718 10.9256 14.0711 11.9487 14.4034L11.6398 15.3545C10.0912 14.8515 9.24391 13.1879 9.74681 11.6395L10.6979 11.9484ZM1.59633 13.1527C1.92864 14.1758 3.02754 14.7361 4.05154 14.4035L4.36044 15.3546C2.81132 15.8577 1.1482 15.0101 0.645237 13.4616L1.59633 13.1527ZM4.05153 14.4035C5.07461 14.0712 5.63468 12.9718 5.30198 11.9484L6.25298 11.6392C6.75641 13.1877 5.9091 14.8516 4.36044 15.3546L4.05153 14.4035ZM5.30193 11.9483C4.96959 10.9249 3.87025 10.3648 2.8473 10.6974L2.5381 9.74641C4.08646 9.24298 5.75009 10.0906 6.25304 11.6394L5.30193 11.9483ZM2.84716 10.6975C1.82324 11.03 1.26328 12.1292 1.59624 13.1524L0.645321 13.4618C0.141305 11.9129 0.989152 10.2495 2.53825 9.74636L2.84716 10.6975ZM5.02505 2.30367C4.39227 1.43301 3.17385 1.24017 2.30359 1.87277L1.71561 1.0639C3.03283 0.106386 4.87664 0.398524 5.83398 1.71576L5.02505 2.30367ZM2.30343 1.87289C1.43275 2.50526 1.23978 3.72359 1.8723 4.59413L1.0633 5.18194C0.106132 3.86459 0.398127 2.02079 1.71577 1.06378L2.30343 1.87289ZM1.87233 4.59417C2.50471 5.46469 3.72308 5.65771 4.59363 5.02531L5.18136 5.83437C3.86402 6.79134 2.02027 6.49928 1.06327 5.1819L1.87233 4.59417ZM4.59361 5.02533C5.46426 4.39275 5.65735 3.17408 5.02498 2.30358L5.83404 1.71585C6.79105 3.03325 6.49874 4.87723 5.18139 5.83434L4.59361 5.02533ZM10.974 2.30342C10.3418 3.174 10.5348 4.39269 11.4054 5.02523L10.8176 5.83424C9.50019 4.87708 9.20821 3.03312 10.1649 1.71579L10.974 2.30342ZM11.4054 5.02524C12.2759 5.65774 13.4941 5.46468 14.1267 4.59419L14.9357 5.1821C13.9785 6.49908 12.135 6.79152 10.8176 5.83422L11.4054 5.02524ZM14.1267 4.59419C14.7594 3.72372 14.5663 2.50514 13.6957 1.87251L14.2835 1.06353C15.6008 2.0207 15.8931 3.86467 14.9357 5.1821L14.1267 4.59419ZM13.6957 1.87252C12.8252 1.24002 11.6067 1.43292 10.9739 2.30356L10.165 1.71565C11.1224 0.398396 12.9661 0.106332 14.2835 1.06352L13.6957 1.87252Z" fill="#F2F2F2"/>
</svg>
