<svg width="13" height="13" viewBox="0 0 13 13" fill="none" xmlns="http://www.w3.org/2000/svg">
<path d="M12.2667 0H1.95556C1.661 0 1.42222 0.358167 1.42222 0.8V1.06667H0.533333C0.238778 1.06667 0 1.42483 0 1.86667V10.9333C0 11.9643 0.557156 12.8 1.24444 12.8H11.7333C12.3224 12.8 12.8 12.0837 12.8 11.2V0.8C12.8 0.358167 12.5612 0 12.2667 0ZM1.24444 11.2C1.19729 11.2 1.15208 11.1719 1.11874 11.1219C1.0854 11.0719 1.06667 11.0041 1.06667 10.9333V2.66667H1.42222V10.9333C1.42222 11.0041 1.40349 11.0719 1.37015 11.1219C1.33681 11.1719 1.29159 11.2 1.24444 11.2ZM6.48889 10.6667H3.11111C2.96384 10.6667 2.84444 10.4876 2.84444 10.2667V10C2.84444 9.7791 2.96384 9.6 3.11111 9.6H6.48889C6.63616 9.6 6.75556 9.7791 6.75556 10V10.2667C6.75556 10.4876 6.63616 10.6667 6.48889 10.6667ZM11.1111 10.6667H7.73333C7.58607 10.6667 7.46667 10.4876 7.46667 10.2667V10C7.46667 9.7791 7.58607 9.6 7.73333 9.6H11.1111C11.2584 9.6 11.3778 9.7791 11.3778 10V10.2667C11.3778 10.4876 11.2584 10.6667 11.1111 10.6667ZM6.48889 7.46667H3.11111C2.96384 7.46667 2.84444 7.28757 2.84444 7.06667V6.8C2.84444 6.5791 2.96384 6.4 3.11111 6.4H6.48889C6.63616 6.4 6.75556 6.5791 6.75556 6.8V7.06667C6.75556 7.28757 6.63616 7.46667 6.48889 7.46667ZM11.1111 7.46667H7.73333C7.58607 7.46667 7.46667 7.28757 7.46667 7.06667V6.8C7.46667 6.5791 7.58607 6.4 7.73333 6.4H11.1111C11.2584 6.4 11.3778 6.5791 11.3778 6.8V7.06667C11.3778 7.28757 11.2584 7.46667 11.1111 7.46667ZM11.1111 4.26667H3.11111C2.96384 4.26667 2.84444 4.08757 2.84444 3.86667V2.53333C2.84444 2.31243 2.96384 2.13333 3.11111 2.13333H11.1111C11.2584 2.13333 11.3778 2.31243 11.3778 2.53333V3.86667C11.3778 4.08757 11.2584 4.26667 11.1111 4.26667Z" fill="#F2F2F2"/>
</svg>
