<svg width="13" height="13" viewBox="0 0 13 13" fill="none" xmlns="http://www.w3.org/2000/svg">
<path d="M12.4666 0H2.15551C1.86095 0 1.62217 0.358167 1.62217 0.8V1.06667H0.733284C0.438729 1.06667 0.199951 1.42483 0.199951 1.86667V10.9333C0.199951 11.9643 0.757107 12.8 1.4444 12.8H11.9333C12.5224 12.8 13 12.0837 13 11.2V0.8C13 0.358167 12.7612 0 12.4666 0ZM1.4444 11.2C1.39725 11.2 1.35203 11.1719 1.31869 11.1219C1.28535 11.0719 1.26662 11.0041 1.26662 10.9333V2.66667H1.62217V10.9333C1.62217 11.0041 1.60344 11.0719 1.5701 11.1219C1.53676 11.1719 1.49155 11.2 1.4444 11.2ZM6.68884 10.6667H3.31106C3.1638 10.6667 3.0444 10.4876 3.0444 10.2667V10C3.0444 9.7791 3.1638 9.6 3.31106 9.6H6.68884C6.83611 9.6 6.95551 9.7791 6.95551 10V10.2667C6.95551 10.4876 6.83611 10.6667 6.68884 10.6667ZM11.3111 10.6667H7.93328C7.78602 10.6667 7.66662 10.4876 7.66662 10.2667V10C7.66662 9.7791 7.78602 9.6 7.93328 9.6H11.3111C11.4583 9.6 11.5777 9.7791 11.5777 10V10.2667C11.5777 10.4876 11.4583 10.6667 11.3111 10.6667ZM6.68884 7.46667H3.31106C3.1638 7.46667 3.0444 7.28757 3.0444 7.06667V6.8C3.0444 6.5791 3.1638 6.4 3.31106 6.4H6.68884C6.83611 6.4 6.95551 6.5791 6.95551 6.8V7.06667C6.95551 7.28757 6.83611 7.46667 6.68884 7.46667ZM11.3111 7.46667H7.93328C7.78602 7.46667 7.66662 7.28757 7.66662 7.06667V6.8C7.66662 6.5791 7.78602 6.4 7.93328 6.4H11.3111C11.4583 6.4 11.5777 6.5791 11.5777 6.8V7.06667C11.5777 7.28757 11.4583 7.46667 11.3111 7.46667ZM11.3111 4.26667H3.31106C3.1638 4.26667 3.0444 4.08757 3.0444 3.86667V2.53333C3.0444 2.31243 3.1638 2.13333 3.31106 2.13333H11.3111C11.4583 2.13333 11.5777 2.31243 11.5777 2.53333V3.86667C11.5777 4.08757 11.4583 4.26667 11.3111 4.26667Z" fill="black"/>
</svg>
