<svg width="18" height="4" viewBox="0 0 18 4" fill="none" xmlns="http://www.w3.org/2000/svg">
<path d="M8.97257 3.02838C9.52534 3.02838 9.97345 2.58027 9.97345 2.0275C9.97345 1.47472 9.52534 1.02661 8.97257 1.02661C8.41979 1.02661 7.97168 1.47472 7.97168 2.0275C7.97168 2.58027 8.41979 3.02838 8.97257 3.02838Z" stroke="black" stroke-width="1.20996" stroke-linecap="round" stroke-linejoin="round"/>
<path d="M15.9789 3.02838C16.5317 3.02838 16.9798 2.58027 16.9798 2.0275C16.9798 1.47472 16.5317 1.02661 15.9789 1.02661C15.4261 1.02661 14.978 1.47472 14.978 2.0275C14.978 2.58027 15.4261 3.02838 15.9789 3.02838Z" stroke="black" stroke-width="1.20996" stroke-linecap="round" stroke-linejoin="round"/>
<path d="M1.96622 3.02838C2.51899 3.02838 2.96711 2.58027 2.96711 2.0275C2.96711 1.47472 2.51899 1.02661 1.96622 1.02661C1.41344 1.02661 0.965332 1.47472 0.965332 2.0275C0.965332 2.58027 1.41344 3.02838 1.96622 3.02838Z" stroke="black" stroke-width="1.20996" stroke-linecap="round" stroke-linejoin="round"/>
</svg>
